<svg xmlns="http://www.w3.org/2000/svg" viewBox="0 0 640 600" font-family="ui-sans-serif, system-ui, sans-serif">
  <rect x="0.5" y="0.5" width="639" height="599" rx="16" fill="#0b1120" stroke="#1e293b"/>
  <text x="320" y="34" text-anchor="middle" fill="#e2e8f0" font-size="16" font-weight="700">Falcon3 iOS — iPhone · Apple Silicon (on-device, MLX)</text>

  <defs>
    <marker id="a" markerWidth="9" markerHeight="9" refX="6" refY="3" orient="auto">
      <path d="M0,0 L6,3 L0,6 Z" fill="#64748b"/>
    </marker>
  </defs>
  <g stroke="#64748b" stroke-width="2" marker-end="url(#a)">
    <line x1="320" y1="108" x2="320" y2="150"/>
    <line x1="320" y1="214" x2="320" y2="262"/>
    <line x1="320" y1="342" x2="320" y2="390"/>
    <line x1="320" y1="454" x2="320" y2="500"/>
    <line x1="558" y1="296" x2="464" y2="296"/>
  </g>

  <g>
    <rect x="180" y="58" width="280" height="50" rx="10" fill="#0f172a" stroke="#38bdf8"/>
    <text x="320" y="88" text-anchor="middle" fill="#e2e8f0" font-size="14">🎙️ Audio input (question)</text>
  </g>

  <g>
    <rect x="180" y="150" width="280" height="64" rx="10" fill="#0f172a" stroke="#a78bfa"/>
    <text x="320" y="177" text-anchor="middle" fill="#e2e8f0" font-size="14" font-weight="600">ASR</text>
    <text x="320" y="197" text-anchor="middle" fill="#94a3b8" font-size="11">speech → text</text>
  </g>

  <g>
    <rect x="558" y="272" width="74" height="48" rx="10" fill="#0f172a" stroke="#38bdf8"/>
    <text x="595" y="292" text-anchor="middle" fill="#e2e8f0" font-size="13">📷</text>
    <text x="595" y="308" text-anchor="middle" fill="#94a3b8" font-size="10">image</text>
  </g>

  <g>
    <rect x="180" y="262" width="280" height="80" rx="10" fill="#0f172a" stroke="#a78bfa"/>
    <text x="320" y="292" text-anchor="middle" fill="#e2e8f0" font-size="14" font-weight="600">Falcon3 VLM</text>
    <text x="320" y="312" text-anchor="middle" fill="#94a3b8" font-size="11">integrated via MLX</text>
    <text x="320" y="330" text-anchor="middle" fill="#94a3b8" font-size="11">text prompt + image</text>
  </g>

  <g>
    <rect x="180" y="390" width="280" height="64" rx="10" fill="#0f172a" stroke="#a78bfa"/>
    <text x="320" y="417" text-anchor="middle" fill="#e2e8f0" font-size="14" font-weight="600">TTS</text>
    <text x="320" y="437" text-anchor="middle" fill="#94a3b8" font-size="11">text → speech</text>
  </g>

  <g>
    <rect x="180" y="500" width="280" height="50" rx="10" fill="#0f172a" stroke="#38bdf8"/>
    <text x="320" y="530" text-anchor="middle" fill="#e2e8f0" font-size="14">🔊 Audio output (spoken answer)</text>
  </g>
</svg>
